<svg width="156.3225" height="53.55167" xmlns="http://www.w3.org/2000/svg">

 <metadata id="metadata898">image/svg+xml</metadata>
 <g>
  <title>background</title>
  <rect fill="none" id="canvas_background" height="55.55167" width="158.3225" y="-1" x="-1"/>
 </g>
 <g>
  <title>Layer 1</title>
  <defs>
   <linearGradient id="svg_42" x1="0" y1="1" x2="0" y2="0">
    <stop stop-color="#31a8e8" stop-opacity="0.99609" offset="0"/>
    <stop stop-color="#000000" stop-opacity="0.99609" offset="1"/>
   </linearGradient>
  </defs>
  <metadata transform="matrix(0.0194483843261537,0,0,0.0194483843261537,0,0) " id="svg_44">image/svg+xml</metadata>
  <g stroke="null" id="svg_48">
   <g stroke="null" transform="matrix(0.05494633748240588,0,0,0.08849516607802387,-122.75012858737742,-71.14092356968315) " id="svg_46">
    <title stroke="null" transform="translate(-1021.5014038085938,0) translate(0,-0.9417318105697632) translate(-1.51801598072052,0) translate(-4.547473508864641e-13,0) translate(4.547473508864641e-13,-1.1368683772161603e-13) translate(0,-1.1368683772161603e-13) translate(-4.547473508864641e-13,0) translate(-0.8759421110153198,0.8759421110153198) translate(0,-160.2755126953125) translate(-9.788450241088867,2.2737367544323206e-13) translate(0,160.27560424804688) translate(19.57681655883789,2.2737367544323206e-13) translate(-9.788482666015625,2.2737367544323206e-13) translate(0.00012345000868663192,2.2737367544323206e-13) translate(0,-0.00007085315155563876) translate(0,-270.2336120605469) translate(-360.0121154785156,2.2737367544323206e-13) translate(3618.9072265625,0) translate(0,1076.7637939453125) ">background</title>
    <rect stroke="null" x="2233.99976" y="805.46441" width="802" height="602" id="svg_43" fill="none"/>
   </g>
   <g stroke="null" transform="matrix(0.44332937332218425,0,0,0.44332937332218425,-1530.1607051272854,-481.18182401869404) " id="svg_47">
    <title stroke="null" transform="translate(-126.6051025390625,2.2737367544323206e-13) translate(4.547473508864641e-13,-0.18798373639583588) translate(-0.18814323842525482,2.2737367544323206e-13) translate(4.547473508864641e-13,-0.0001728493662085384) translate(-0.00006264190596994013,2.2737367544323206e-13) translate(-8.270819664001465,2.2737367544323206e-13) translate(4.547473508864641e-13,10.462712287902832) translate(4.547473508864641e-13,2.2737367544323206e-13) translate(-4.547473508864641e-13,28.786712646484375) translate(-22.797767639160156,0) translate(-4.547473508864641e-13,0) translate(0,159.39955139160156) translate(10.664311408996582,2.2737367544323206e-13) translate(-0.8759421110153198,0.8759421110153198) translate(0,-160.2755126953125) translate(-9.788450241088867,2.2737367544323206e-13) translate(0,75.72459411621094) translate(327.0875244140625,2.2737367544323206e-13) translate(-0.8759421110153198,2.2737367544323206e-13) translate(0,160.27560424804688) translate(19.57681655883789,2.2737367544323206e-13) translate(-9.788482666015625,2.2737367544323206e-13) translate(0.00012345000868663192,2.2737367544323206e-13) translate(0,-0.00007085315155563876) translate(0,-270.2336120605469) translate(-360.0121154785156,2.2737367544323206e-13) translate(3618.9072265625,0) translate(0,1076.7637939453125) ">Layer 1</title>
    <g stroke="null" id="svg_24">
     <g stroke="null" id="svg_40" transform="matrix(0.19334416618442898,0,0,0.19334416618442898,-2414.7230465874695,-2394.5131821010586) ">
      <path stroke="null" d="m30355.62685,18240.68268c0,157.434 128.185,375.178 241.4,375.178c106.581,0 241.399,-217.744 241.399,-375.178s-108.078,-236.822 -241.4,-236.822s-241.399,79.388 -241.399,236.822zm304.12,116.415c29.475,-29.475 70.598,-40.195 108.552,-32.173c8.021,37.954 -2.698,79.077 -32.173,108.552c-29.475,29.475 -70.598,40.195 -108.552,32.173c-8.022,-37.955 2.698,-79.078 32.173,-108.552zm-233.994,-32.174c37.954,-8.021 79.077,2.698 108.552,32.173c29.475,29.475 40.195,70.598 32.173,108.552c-37.954,8.021 -79.077,-2.698 -108.552,-32.173c-29.475,-29.476 -40.194,-70.598 -32.173,-108.552z" id="svg_41" fill="url(#svg_42)"/>
     </g>
     <g stroke="null" id="svg_39" transform="matrix(0.19334416618442898,0,0,0.19334416618442898,-2414.7230465874695,-2394.5131821010586) "/>
     <g stroke="null" id="svg_38" transform="matrix(0.19334416618442898,0,0,0.19334416618442898,-2414.7230465874695,-2394.5131821010586) "/>
     <g stroke="null" id="svg_37" transform="matrix(0.19334416618442898,0,0,0.19334416618442898,-2414.7230465874695,-2394.5131821010586) "/>
     <g stroke="null" id="svg_36" transform="matrix(0.19334416618442898,0,0,0.19334416618442898,-2414.7230465874695,-2394.5131821010586) "/>
     <g stroke="null" id="svg_35" transform="matrix(0.19334416618442898,0,0,0.19334416618442898,-2414.7230465874695,-2394.5131821010586) "/>
     <g stroke="null" id="svg_34" transform="matrix(0.19334416618442898,0,0,0.19334416618442898,-2414.7230465874695,-2394.5131821010586) "/>
     <g stroke="null" id="svg_33" transform="matrix(0.19334416618442898,0,0,0.19334416618442898,-2414.7230465874695,-2394.5131821010586) "/>
     <g stroke="null" id="svg_32" transform="matrix(0.19334416618442898,0,0,0.19334416618442898,-2414.7230465874695,-2394.5131821010586) "/>
     <g stroke="null" id="svg_31" transform="matrix(0.19334416618442898,0,0,0.19334416618442898,-2414.7230465874695,-2394.5131821010586) "/>
     <g stroke="null" id="svg_30" transform="matrix(0.19334416618442898,0,0,0.19334416618442898,-2414.7230465874695,-2394.5131821010586) "/>
     <g stroke="null" id="svg_29" transform="matrix(0.19334416618442898,0,0,0.19334416618442898,-2414.7230465874695,-2394.5131821010586) "/>
     <g stroke="null" id="svg_28" transform="matrix(0.19334416618442898,0,0,0.19334416618442898,-2414.7230465874695,-2394.5131821010586) "/>
     <g stroke="null" id="svg_27" transform="matrix(0.19334416618442898,0,0,0.19334416618442898,-2414.7230465874695,-2394.5131821010586) "/>
     <g stroke="null" id="svg_26" transform="matrix(0.19334416618442898,0,0,0.19334416618442898,-2414.7230465874695,-2394.5131821010586) "/>
     <g stroke="null" id="svg_25" transform="matrix(0.19334416618442898,0,0,0.19334416618442898,-2414.7230465874695,-2394.5131821010586) "/>
    </g>
   </g>
  </g>
  <text stroke="#000" transform="matrix(0.567116723144043,0,0,1.2697281229636919,20.933583389025152,-33.93817352216986) " font-style="normal" font-weight="normal" xml:space="preserve" text-anchor="start" font-family="'Poppins ExtraBold'" font-size="24" id="svg_49" y="55.72757" x="42.97667" stroke-width="0" fill="#000000">ShaneSpace OS</text>
 </g>
</svg>