<svg width="512" height="512" xmlns="http://www.w3.org/2000/svg">
 <!-- Created with Method Draw - http://github.com/duopixel/Method-Draw/ -->

 <g>
  <title>background</title>
  <rect fill="none" id="canvas_background" height="514" width="514" y="-1" x="-1"/>
 </g>
 <g>
  <title>Layer 1</title>
  <ellipse stroke="#000" ry="252.50016" rx="252.50016" id="svg_3" cy="256" cx="256" stroke-width="1.5" fill="#000000"/>
  <metadata transform="matrix(10.024216544298724,0,0,10.024216544298724,0,0) " id="svg_60">image/svg+xml</metadata>
  <defs>
   <linearGradient id="svg_106" x1="0" y1="1" x2="0" y2="0">
    <stop stop-color="#31a8e8" stop-opacity="0.99609" offset="0"/>
    <stop stop-color="#000000" stop-opacity="0.99609" offset="1"/>
   </linearGradient>
  </defs>
  <metadata transform="matrix(1.7777772479587526,0,0,1.7777772479587526,0,0) " id="svg_108">image/svg+xml</metadata>
  <g stroke="null" id="svg_112">
   <g stroke="null" transform="matrix(0.4778033096377993,0,0,0.7968028244890262,-472.8016883677142,-853.9354044476462) " id="svg_110">
    <title stroke="null" transform="translate(1.1368683772161603e-13,0) translate(0,2.2737367544323206e-13) translate(1.5766265392303467,0) translate(11.036385536193848,-28.298622131347656) translate(15.766264915466309,33.01505661010742) translate(2.2737367544323206e-13,-19.233518600463867) translate(-229.2269744873047,0) translate(229.22686767578125,0) translate(-26.12648582458496,0) translate(-521.90673828125,-381.8533935546875) translate(2.2737367544323206e-13,0) translate(1775.2928466796875,976.1875) translate(1.1368683772161603e-13,0) translate(-1.1368683772161603e-13,2.842170943040401e-14) translate(0,-2.842170943040401e-14) translate(1.1368683772161603e-13,5.684341886080802e-14) translate(127.5329360961914,669.5479125976562) translate(-255.9999542236328,0) translate(0,-155.99996948242188) ">background</title>
    <rect stroke="null" x="1126.17177" y="1092.36497" width="802" height="602" id="svg_107" fill="none"/>
   </g>
   <g stroke="null" transform="matrix(4.032606316328367,0,0,4.032606316328367,-413.31625381805304,-2662.301789573944) " id="svg_111">
    <title stroke="null" transform="translate(0.24797861278057098,0) translate(0,4.660528659820557) translate(0.24802587926387787,0) translate(1.7358503341674805,-5.951487064361572) translate(2.4797861576080322,6.943401336669922) translate(0,-25.499759674072266) translate(-20.152151107788086,0) translate(0,-47.31330490112305) translate(-37.61528015136719,0) translate(0,-1.771263599395752) translate(-0.0000945971260080114,0) translate(0,1.7712907791137695) translate(0,213.28904724121094) translate(283.7469482421875,0) translate(127.5329360961914,669.5479125976562) translate(-255.9999542236328,0) translate(0,-155.99996948242188) ">Layer 1</title>
    <g stroke="null" id="svg_88">
     <g stroke="null" id="svg_104" transform="matrix(0.19334416618442898,0,0,0.19334416618442898,-2414.7230465874695,-2394.5131821010586) ">
      <path stroke="null" d="m13107.57997,16058.48526c0,157.434 128.185,375.178 241.4,375.178c106.581,0 241.399,-217.744 241.399,-375.178s-108.078,-236.822 -241.4,-236.822s-241.399,79.388 -241.399,236.822zm304.12,116.415c29.475,-29.475 70.598,-40.195 108.552,-32.173c8.021,37.954 -2.698,79.077 -32.173,108.552c-29.475,29.475 -70.598,40.195 -108.552,32.173c-8.022,-37.955 2.698,-79.078 32.173,-108.552zm-233.994,-32.174c37.954,-8.021 79.077,2.698 108.552,32.173c29.475,29.475 40.195,70.598 32.173,108.552c-37.954,8.021 -79.077,-2.698 -108.552,-32.173c-29.475,-29.476 -40.194,-70.598 -32.173,-108.552z" id="svg_105" fill="url(#svg_106)"/>
     </g>
     <g stroke="null" id="svg_103" transform="matrix(0.19334416618442898,0,0,0.19334416618442898,-2414.7230465874695,-2394.5131821010586) "/>
     <g stroke="null" id="svg_102" transform="matrix(0.19334416618442898,0,0,0.19334416618442898,-2414.7230465874695,-2394.5131821010586) "/>
     <g stroke="null" id="svg_101" transform="matrix(0.19334416618442898,0,0,0.19334416618442898,-2414.7230465874695,-2394.5131821010586) "/>
     <g stroke="null" id="svg_100" transform="matrix(0.19334416618442898,0,0,0.19334416618442898,-2414.7230465874695,-2394.5131821010586) "/>
     <g stroke="null" id="svg_99" transform="matrix(0.19334416618442898,0,0,0.19334416618442898,-2414.7230465874695,-2394.5131821010586) "/>
     <g stroke="null" id="svg_98" transform="matrix(0.19334416618442898,0,0,0.19334416618442898,-2414.7230465874695,-2394.5131821010586) "/>
     <g stroke="null" id="svg_97" transform="matrix(0.19334416618442898,0,0,0.19334416618442898,-2414.7230465874695,-2394.5131821010586) "/>
     <g stroke="null" id="svg_96" transform="matrix(0.19334416618442898,0,0,0.19334416618442898,-2414.7230465874695,-2394.5131821010586) "/>
     <g stroke="null" id="svg_95" transform="matrix(0.19334416618442898,0,0,0.19334416618442898,-2414.7230465874695,-2394.5131821010586) "/>
     <g stroke="null" id="svg_94" transform="matrix(0.19334416618442898,0,0,0.19334416618442898,-2414.7230465874695,-2394.5131821010586) "/>
     <g stroke="null" id="svg_93" transform="matrix(0.19334416618442898,0,0,0.19334416618442898,-2414.7230465874695,-2394.5131821010586) "/>
     <g stroke="null" id="svg_92" transform="matrix(0.19334416618442898,0,0,0.19334416618442898,-2414.7230465874695,-2394.5131821010586) "/>
     <g stroke="null" id="svg_91" transform="matrix(0.19334416618442898,0,0,0.19334416618442898,-2414.7230465874695,-2394.5131821010586) "/>
     <g stroke="null" id="svg_90" transform="matrix(0.19334416618442898,0,0,0.19334416618442898,-2414.7230465874695,-2394.5131821010586) "/>
     <g stroke="null" id="svg_89" transform="matrix(0.19334416618442898,0,0,0.19334416618442898,-2414.7230465874695,-2394.5131821010586) "/>
    </g>
   </g>
  </g>
 </g>
</svg>