<svg width="128" height="128" xmlns="http://www.w3.org/2000/svg">
 <defs>
  <linearGradient y2="0" x2="0" y1="1" x1="0" id="svg_23">
   <stop offset="0" stop-opacity="0.99609" stop-color="#31a8e8"/>
   <stop offset="1" stop-opacity="0.99609" stop-color="#000000"/>
  </linearGradient>
 </defs>
 <metadata id="metadata4">image/svg+xml</metadata>
 <g>
  <title>background</title>
  <rect fill="none" id="canvas_background" height="602" width="802" y="-1" x="-1"/>
 </g>
 <g>
  <title>Layer 1</title>
  <g stroke="null" id="svg_22">
   <g stroke="null" transform="matrix(0.19334416618442898,0,0,0.19334416618442898,-2414.7230465874695,-2394.5131821010586) " id="svg_5">
    <path fill="url(#svg_23)" stroke="null" id="svg_6" d="m12578.86457,12646.55717c0,157.434 128.185,375.178 241.4,375.178c106.581,0 241.399,-217.744 241.399,-375.178s-108.078,-236.822 -241.4,-236.822s-241.399,79.388 -241.399,236.822zm304.12,116.415c29.475,-29.475 70.598,-40.195 108.552,-32.173c8.021,37.954 -2.698,79.077 -32.173,108.552c-29.475,29.475 -70.598,40.195 -108.552,32.173c-8.022,-37.955 2.698,-79.078 32.173,-108.552zm-233.994,-32.174c37.954,-8.021 79.077,2.698 108.552,32.173c29.475,29.475 40.195,70.598 32.173,108.552c-37.954,8.021 -79.077,-2.698 -108.552,-32.173c-29.475,-29.476 -40.194,-70.598 -32.173,-108.552z"/>
   </g>
   <g stroke="null" transform="matrix(0.19334416618442898,0,0,0.19334416618442898,-2414.7230465874695,-2394.5131821010586) " id="svg_7"/>
   <g stroke="null" transform="matrix(0.19334416618442898,0,0,0.19334416618442898,-2414.7230465874695,-2394.5131821010586) " id="svg_8"/>
   <g stroke="null" transform="matrix(0.19334416618442898,0,0,0.19334416618442898,-2414.7230465874695,-2394.5131821010586) " id="svg_9"/>
   <g stroke="null" transform="matrix(0.19334416618442898,0,0,0.19334416618442898,-2414.7230465874695,-2394.5131821010586) " id="svg_10"/>
   <g stroke="null" transform="matrix(0.19334416618442898,0,0,0.19334416618442898,-2414.7230465874695,-2394.5131821010586) " id="svg_11"/>
   <g stroke="null" transform="matrix(0.19334416618442898,0,0,0.19334416618442898,-2414.7230465874695,-2394.5131821010586) " id="svg_12"/>
   <g stroke="null" transform="matrix(0.19334416618442898,0,0,0.19334416618442898,-2414.7230465874695,-2394.5131821010586) " id="svg_13"/>
   <g stroke="null" transform="matrix(0.19334416618442898,0,0,0.19334416618442898,-2414.7230465874695,-2394.5131821010586) " id="svg_14"/>
   <g stroke="null" transform="matrix(0.19334416618442898,0,0,0.19334416618442898,-2414.7230465874695,-2394.5131821010586) " id="svg_15"/>
   <g stroke="null" transform="matrix(0.19334416618442898,0,0,0.19334416618442898,-2414.7230465874695,-2394.5131821010586) " id="svg_16"/>
   <g stroke="null" transform="matrix(0.19334416618442898,0,0,0.19334416618442898,-2414.7230465874695,-2394.5131821010586) " id="svg_17"/>
   <g stroke="null" transform="matrix(0.19334416618442898,0,0,0.19334416618442898,-2414.7230465874695,-2394.5131821010586) " id="svg_18"/>
   <g stroke="null" transform="matrix(0.19334416618442898,0,0,0.19334416618442898,-2414.7230465874695,-2394.5131821010586) " id="svg_19"/>
   <g stroke="null" transform="matrix(0.19334416618442898,0,0,0.19334416618442898,-2414.7230465874695,-2394.5131821010586) " id="svg_20"/>
   <g stroke="null" transform="matrix(0.19334416618442898,0,0,0.19334416618442898,-2414.7230465874695,-2394.5131821010586) " id="svg_21"/>
  </g>
 </g>
</svg>