<svg width="1920" height="1280" xmlns="http://www.w3.org/2000/svg">
 <!-- Created with Method Draw - http://github.com/duopixel/Method-Draw/ -->

 <g>
  <title>background</title>
  <rect fill="#000000" id="canvas_background" height="1282" width="1922" y="-1" x="-1"/>
  <g display="none" overflow="visible" y="0" x="0" height="100%" width="100%" id="canvasGrid">
   <rect fill="url(#gridpattern)" stroke-width="0" y="0" x="0" height="100%" width="100%"/>
  </g>
 </g>
 <g>
  <title>Layer 1</title>
  <g stroke="null" id="svg_22">
   <g stroke="null" transform="matrix(0.35763359213062773,0,0,0.35763359213062773,-1808.551761528477,-1171.4471247773909) " id="svg_5">
    <path stroke="null" fill="#1d5482" id="svg_6" d="m7499.90715,4995.91343c0,157.434 128.185,375.178 241.4,375.178c106.581,0 241.399,-217.744 241.399,-375.178s-108.078,-236.822 -241.4,-236.822s-241.399,79.388 -241.399,236.822zm304.12,116.415c29.475,-29.475 70.598,-40.195 108.552,-32.173c8.021,37.954 -2.698,79.077 -32.173,108.552c-29.475,29.475 -70.598,40.195 -108.552,32.173c-8.022,-37.955 2.698,-79.078 32.173,-108.552zm-233.994,-32.174c37.954,-8.021 79.077,2.698 108.552,32.173c29.475,29.475 40.195,70.598 32.173,108.552c-37.954,8.021 -79.077,-2.698 -108.552,-32.173c-29.475,-29.476 -40.194,-70.598 -32.173,-108.552z"/>
   </g>
   <g stroke="null" transform="matrix(0.35763359213062773,0,0,0.35763359213062773,-1808.551761528477,-1171.4471247773909) " id="svg_7"/>
   <g stroke="null" transform="matrix(0.35763359213062773,0,0,0.35763359213062773,-1808.551761528477,-1171.4471247773909) " id="svg_8"/>
   <g stroke="null" transform="matrix(0.35763359213062773,0,0,0.35763359213062773,-1808.551761528477,-1171.4471247773909) " id="svg_9"/>
   <g stroke="null" transform="matrix(0.35763359213062773,0,0,0.35763359213062773,-1808.551761528477,-1171.4471247773909) " id="svg_10"/>
   <g stroke="null" transform="matrix(0.35763359213062773,0,0,0.35763359213062773,-1808.551761528477,-1171.4471247773909) " id="svg_11"/>
   <g stroke="null" transform="matrix(0.35763359213062773,0,0,0.35763359213062773,-1808.551761528477,-1171.4471247773909) " id="svg_12"/>
   <g stroke="null" transform="matrix(0.35763359213062773,0,0,0.35763359213062773,-1808.551761528477,-1171.4471247773909) " id="svg_13"/>
   <g stroke="null" transform="matrix(0.35763359213062773,0,0,0.35763359213062773,-1808.551761528477,-1171.4471247773909) " id="svg_14"/>
   <g stroke="null" transform="matrix(0.35763359213062773,0,0,0.35763359213062773,-1808.551761528477,-1171.4471247773909) " id="svg_15"/>
   <g stroke="null" transform="matrix(0.35763359213062773,0,0,0.35763359213062773,-1808.551761528477,-1171.4471247773909) " id="svg_16"/>
   <g stroke="null" transform="matrix(0.35763359213062773,0,0,0.35763359213062773,-1808.551761528477,-1171.4471247773909) " id="svg_17"/>
   <g stroke="null" transform="matrix(0.35763359213062773,0,0,0.35763359213062773,-1808.551761528477,-1171.4471247773909) " id="svg_18"/>
   <g stroke="null" transform="matrix(0.35763359213062773,0,0,0.35763359213062773,-1808.551761528477,-1171.4471247773909) " id="svg_19"/>
   <g stroke="null" transform="matrix(0.35763359213062773,0,0,0.35763359213062773,-1808.551761528477,-1171.4471247773909) " id="svg_20"/>
   <g stroke="null" transform="matrix(0.35763359213062773,0,0,0.35763359213062773,-1808.551761528477,-1171.4471247773909) " id="svg_21"/>
  </g>
 </g>
</svg>