<svg width="1920" height="1080" xmlns="http://www.w3.org/2000/svg">
 <!-- Created with Method Draw - http://github.com/duopixel/Method-Draw/ -->
 <defs>
  <linearGradient y2="0" x2="0" y1="1" x1="0" id="svg_31">
   <stop offset="0" stop-color="#31a8e8"/>
   <stop offset="1" stop-opacity="0.99219" stop-color="#000000"/>
  </linearGradient>
 </defs>
 <g>
  <title>background</title>
  <rect x="-1" y="-1" width="1922" height="1082" id="canvas_background" fill="#000000"/>
  <g id="canvasGrid" display="none">
   <rect id="svg_1" width="100%" height="100%" x="0" y="0" stroke-width="0" fill="url(#gridpattern)"/>
  </g>
 </g>
 <g>
  <title>Layer 1</title>
  <g id="svg_22" stroke="null">
   <g id="svg_5" transform="matrix(0.35763359213062773,0,0,0.35763359213062773,-1808.551761528477,-1171.4471247773909) " stroke="null">
    <path d="m7499.90641,5664.195c0,157.434 128.185,375.178 241.4,375.178c106.581,0 241.399,-217.744 241.399,-375.178s-108.078,-236.822 -241.4,-236.822s-241.399,79.388 -241.399,236.822zm304.12,116.415c29.475,-29.475 70.598,-40.195 108.552,-32.173c8.021,37.954 -2.698,79.077 -32.173,108.552c-29.475,29.475 -70.598,40.195 -108.552,32.173c-8.022,-37.955 2.698,-79.078 32.173,-108.552zm-233.994,-32.174c37.954,-8.021 79.077,2.698 108.552,32.173c29.475,29.475 40.195,70.598 32.173,108.552c-37.954,8.021 -79.077,-2.698 -108.552,-32.173c-29.475,-29.476 -40.194,-70.598 -32.173,-108.552z" id="svg_6" fill="url(#svg_31)" stroke="null"/>
   </g>
   <g id="svg_7" transform="matrix(0.35763359213062773,0,0,0.35763359213062773,-1808.551761528477,-1171.4471247773909) " stroke="null"/>
   <g id="svg_8" transform="matrix(0.35763359213062773,0,0,0.35763359213062773,-1808.551761528477,-1171.4471247773909) " stroke="null"/>
   <g id="svg_9" transform="matrix(0.35763359213062773,0,0,0.35763359213062773,-1808.551761528477,-1171.4471247773909) " stroke="null"/>
   <g id="svg_10" transform="matrix(0.35763359213062773,0,0,0.35763359213062773,-1808.551761528477,-1171.4471247773909) " stroke="null"/>
   <g id="svg_11" transform="matrix(0.35763359213062773,0,0,0.35763359213062773,-1808.551761528477,-1171.4471247773909) " stroke="null"/>
   <g id="svg_12" transform="matrix(0.35763359213062773,0,0,0.35763359213062773,-1808.551761528477,-1171.4471247773909) " stroke="null"/>
   <g id="svg_13" transform="matrix(0.35763359213062773,0,0,0.35763359213062773,-1808.551761528477,-1171.4471247773909) " stroke="null"/>
   <g id="svg_14" transform="matrix(0.35763359213062773,0,0,0.35763359213062773,-1808.551761528477,-1171.4471247773909) " stroke="null"/>
   <g id="svg_15" transform="matrix(0.35763359213062773,0,0,0.35763359213062773,-1808.551761528477,-1171.4471247773909) " stroke="null"/>
   <g id="svg_16" transform="matrix(0.35763359213062773,0,0,0.35763359213062773,-1808.551761528477,-1171.4471247773909) " stroke="null"/>
   <g id="svg_17" transform="matrix(0.35763359213062773,0,0,0.35763359213062773,-1808.551761528477,-1171.4471247773909) " stroke="null"/>
   <g id="svg_18" transform="matrix(0.35763359213062773,0,0,0.35763359213062773,-1808.551761528477,-1171.4471247773909) " stroke="null"/>
   <g id="svg_19" transform="matrix(0.35763359213062773,0,0,0.35763359213062773,-1808.551761528477,-1171.4471247773909) " stroke="null"/>
   <g id="svg_20" transform="matrix(0.35763359213062773,0,0,0.35763359213062773,-1808.551761528477,-1171.4471247773909) " stroke="null"/>
   <g id="svg_21" transform="matrix(0.35763359213062773,0,0,0.35763359213062773,-1808.551761528477,-1171.4471247773909) " stroke="null"/>
  </g>
 </g>
</svg>